<svg width="154" height="129" viewBox="0 0 154 129" fill="none" xmlns="http://www.w3.org/2000/svg">
<path d="M76.1407 87.3624C86.3806 77.9632 93.9765 69.4233 98.9285 61.7428C103.881 54.0657 106.357 47.2479 106.357 41.2894C106.357 32.142 103.439 24.6511 97.6041 18.8169C91.7724 12.986 84.618 10.0706 76.1407 10.0706C67.6635 10.0706 60.5074 12.986 54.6724 18.8169C48.8407 24.6511 45.9249 32.142 45.9249 41.2894C45.9249 47.2479 48.4009 54.0657 53.3529 61.7428C58.305 69.4233 65.9009 77.9632 76.1407 87.3624ZM76.1407 100.706C62.6275 89.2087 52.5354 78.5288 45.8644 68.6664C39.1901 58.8072 35.8529 49.6816 35.8529 41.2894C35.8529 28.7012 39.9035 18.6726 48.0047 11.2035C56.1026 3.73451 65.4813 0 76.1407 0C86.8002 0 96.1789 3.73451 104.277 11.2035C112.378 18.6726 116.429 28.7012 116.429 41.2894C116.429 49.6816 113.093 58.8072 106.422 68.6664C99.7477 78.5288 89.6539 89.2087 76.1407 100.706Z" fill="#489000"/>
<path d="M76.382 66.4948C72.2621 66.4948 68.9001 65.8495 66.296 64.559C63.6919 63.2668 62.3898 61.5993 62.3898 59.5562C62.3898 58.2071 62.9534 57.0314 64.0805 56.0291C65.2077 55.0269 66.7624 54.2367 68.7446 53.6584L70.0855 58.0529C69.4248 58.2456 68.8223 58.4869 68.2782 58.7768C67.734 59.0651 67.3648 59.325 67.1705 59.5562C67.6757 60.173 68.8418 60.7127 70.6685 61.1753C72.4953 61.6378 74.3998 61.8691 76.382 61.8691C78.3642 61.8691 80.2788 61.6378 82.1258 61.1753C83.9712 60.7127 85.1465 60.173 85.6518 59.5562C85.4575 59.325 85.0882 59.0651 84.5441 58.7768C84 58.4869 83.3975 58.2456 82.7368 58.0529L84.0777 53.6584C86.0599 54.2367 87.6053 55.0269 88.7138 56.0291C89.8207 57.0314 90.3742 58.2071 90.3742 59.5562C90.3742 61.5993 89.0721 63.2668 86.468 64.559C83.8639 65.8495 80.5019 66.4948 76.382 66.4948ZM76.382 59.5562C75.9544 59.5562 75.5658 59.4306 75.216 59.1792C74.8662 58.9295 74.6135 58.5926 74.4581 58.1685C73.5641 55.4316 72.437 53.138 71.0766 51.2878C69.7163 49.4375 68.3948 47.6643 67.1122 45.9682C65.8684 44.2721 64.7902 42.5181 63.8776 40.7064C62.9635 38.8947 62.5064 36.6589 62.5064 33.9991C62.5064 30.1443 63.8473 26.887 66.5292 24.2272C69.211 21.5675 72.4953 20.2376 76.382 20.2376C80.2687 20.2376 83.553 21.5675 86.2348 24.2272C88.9166 26.887 90.2576 30.1443 90.2576 33.9991C90.2576 36.6589 89.8106 38.8947 88.9166 40.7064C88.0227 42.5181 86.9344 44.2721 85.6518 45.9682C84.4081 47.6643 83.0967 49.4375 81.7177 51.2878C80.3371 53.138 79.1999 55.4316 78.3059 58.1685C78.1504 58.5926 77.8978 58.9295 77.548 59.1792C77.1982 59.4306 76.8095 59.5562 76.382 59.5562ZM76.382 38.9139C77.7423 38.9139 78.9083 38.4321 79.88 37.4684C80.8517 36.5047 81.3375 35.3483 81.3375 33.9991C81.3375 32.6499 80.8517 31.4935 79.88 30.5298C78.9083 29.5661 77.7423 29.0843 76.382 29.0843C75.0216 29.0843 73.8556 29.5661 72.8839 30.5298C71.9123 31.4935 71.4264 32.6499 71.4264 33.9991C71.4264 35.3483 71.9123 36.5047 72.8839 37.4684C73.8556 38.4321 75.0216 38.9139 76.382 38.9139Z" fill="#1E1E1E"/>
<path d="M8.25056 129C6.6294 129 5.07579 128.788 3.58972 128.364C2.10365 127.92 0.90708 127.352 0 126.658L1.59221 123.131C2.46069 123.748 3.48357 124.258 4.66084 124.663C5.85742 125.049 7.06364 125.241 8.27951 125.241C9.20589 125.241 9.94893 125.155 10.5086 124.981C11.0876 124.788 11.5122 124.528 11.7824 124.201C12.0526 123.873 12.1877 123.497 12.1877 123.073C12.1877 122.533 11.9754 122.109 11.5508 121.801C11.1262 121.473 10.5665 121.213 9.87173 121.02C9.17694 120.808 8.40496 120.616 7.55578 120.442C6.7259 120.249 5.88637 120.018 5.03719 119.748C4.2073 119.478 3.44497 119.132 2.75019 118.708C2.0554 118.284 1.48607 117.725 1.04218 117.031C0.617586 116.337 0.405291 115.45 0.405291 114.371C0.405291 113.214 0.714084 112.164 1.33167 111.22C1.96856 110.256 2.91423 109.495 4.16871 108.936C5.44248 108.357 7.03469 108.068 8.94535 108.068C10.2191 108.068 11.4736 108.223 12.7088 108.531C13.9439 108.82 15.0344 109.263 15.98 109.861L14.5326 113.417C13.5869 112.877 12.6412 112.482 11.6955 112.232C10.7499 111.962 9.82348 111.827 8.9164 111.827C8.00932 111.827 7.26629 111.933 6.6873 112.145C6.10831 112.357 5.69337 112.636 5.44248 112.983C5.19158 113.311 5.06614 113.696 5.06614 114.14C5.06614 114.66 5.27843 115.084 5.70302 115.412C6.12761 115.72 6.6873 115.971 7.38208 116.163C8.07687 116.356 8.8392 116.549 9.66908 116.742C10.5183 116.934 11.3578 117.156 12.1877 117.407C13.0369 117.657 13.8088 117.994 14.5036 118.418C15.1984 118.842 15.7581 119.401 16.1827 120.095C16.6266 120.789 16.8485 121.666 16.8485 122.726C16.8485 123.863 16.5301 124.904 15.8932 125.849C15.2563 126.793 14.301 127.554 13.0272 128.132C11.7727 128.711 10.1805 129 8.25056 129Z" fill="#1E1E1E"/>
<path d="M27.4641 128.884C25.6885 128.884 24.1253 128.537 22.7743 127.843C21.4426 127.149 20.4101 126.205 19.6767 125.01C18.9433 123.796 18.5767 122.418 18.5767 120.876C18.5767 119.315 18.9337 117.937 19.6478 116.742C20.3812 115.527 21.3751 114.583 22.6296 113.908C23.884 113.214 25.3026 112.868 26.8851 112.868C28.4098 112.868 29.7801 113.195 30.9959 113.851C32.2311 114.487 33.2057 115.412 33.9198 116.626C34.6339 117.821 34.9909 119.257 34.9909 120.934C34.9909 121.107 34.9813 121.31 34.962 121.541C34.9427 121.753 34.9234 121.955 34.9041 122.148H22.2532V119.517H32.5302L30.7933 120.298C30.7933 119.488 30.6292 118.785 30.3011 118.187C29.9731 117.59 29.5195 117.127 28.9405 116.799C28.3615 116.452 27.6861 116.279 26.9141 116.279C26.1421 116.279 25.457 116.452 24.8587 116.799C24.2797 117.127 23.8261 117.599 23.498 118.216C23.17 118.814 23.0059 119.527 23.0059 120.355V121.049C23.0059 121.897 23.1893 122.649 23.5559 123.304C23.9419 123.94 24.4727 124.432 25.1482 124.779C25.8429 125.106 26.6535 125.27 27.5799 125.27C28.4098 125.27 29.1335 125.145 29.7511 124.894C30.388 124.644 30.967 124.268 31.4881 123.767L33.8909 126.369C33.1768 127.178 32.2794 127.805 31.1986 128.248C30.1178 128.672 28.873 128.884 27.4641 128.884Z" fill="#1E1E1E"/>
<path d="M45.5244 128.884C43.8454 128.884 42.3497 128.547 41.0373 127.872C39.7249 127.178 38.6924 126.224 37.9397 125.01C37.2063 123.796 36.8396 122.418 36.8396 120.876C36.8396 119.315 37.2063 117.937 37.9397 116.742C38.6924 115.527 39.7249 114.583 41.0373 113.908C42.3497 113.214 43.8454 112.868 45.5244 112.868C47.1649 112.868 48.5931 113.214 49.8089 113.908C51.0248 114.583 51.9222 115.556 52.5012 116.828L48.9984 118.708C48.5931 117.975 48.0816 117.435 47.464 117.089C46.8657 116.742 46.2096 116.568 45.4955 116.568C44.7235 116.568 44.0287 116.742 43.4111 117.089C42.7935 117.435 42.3014 117.927 41.9347 118.563C41.5873 119.199 41.4136 119.97 41.4136 120.876C41.4136 121.782 41.5873 122.553 41.9347 123.189C42.3014 123.825 42.7935 124.316 43.4111 124.663C44.0287 125.01 44.7235 125.184 45.4955 125.184C46.2096 125.184 46.8657 125.02 47.464 124.692C48.0816 124.345 48.5931 123.796 48.9984 123.044L52.5012 124.952C51.9222 126.205 51.0248 127.178 49.8089 127.872C48.5931 128.547 47.1649 128.884 45.5244 128.884Z" fill="#1E1E1E"/>
<path d="M61.673 128.884C60.3799 128.884 59.2219 128.634 58.199 128.132C57.1955 127.631 56.4138 126.87 55.8541 125.849C55.2945 124.808 55.0146 123.487 55.0146 121.888V113.099H59.5307V121.223C59.5307 122.514 59.8009 123.468 60.3413 124.085C60.901 124.682 61.6826 124.981 62.6862 124.981C63.381 124.981 63.9986 124.837 64.5389 124.548C65.0793 124.239 65.5039 123.777 65.8127 123.16C66.1215 122.524 66.2759 121.734 66.2759 120.789V113.099H70.792V128.653H66.5075V124.374L67.2891 125.617C66.7681 126.697 65.9961 127.516 64.9732 128.075C63.9696 128.614 62.8695 128.884 61.673 128.884Z" fill="#1E1E1E"/>
<path d="M74.9759 128.653V113.099H79.2893V117.493L78.6814 116.221C79.1446 115.123 79.8876 114.294 80.9105 113.735C81.9334 113.157 83.1782 112.868 84.645 112.868V117.031C84.452 117.011 84.2783 117.002 84.1239 117.002C83.9695 116.983 83.8054 116.973 83.6317 116.973C82.3965 116.973 81.393 117.329 80.621 118.043C79.8683 118.736 79.492 119.825 79.492 121.31V128.653H74.9759Z" fill="#1E1E1E"/>
<path d="M94.9466 128.884C93.1711 128.884 91.6078 128.537 90.2568 127.843C88.9251 127.149 87.8926 126.205 87.1592 125.01C86.4259 123.796 86.0592 122.418 86.0592 120.876C86.0592 119.315 86.4162 117.937 87.1303 116.742C87.8637 115.527 88.8576 114.583 90.1121 113.908C91.3665 113.214 92.7851 112.868 94.3676 112.868C95.8923 112.868 97.2626 113.195 98.4784 113.851C99.7136 114.487 100.688 115.412 101.402 116.626C102.116 117.821 102.473 119.257 102.473 120.934C102.473 121.107 102.464 121.31 102.444 121.541C102.425 121.753 102.406 121.955 102.387 122.148H89.7357V119.517H100.013L98.2758 120.298C98.2758 119.488 98.1117 118.785 97.7836 118.187C97.4556 117.59 97.002 117.127 96.423 116.799C95.844 116.452 95.1686 116.279 94.3966 116.279C93.6246 116.279 92.9395 116.452 92.3412 116.799C91.7622 117.127 91.3086 117.599 90.9806 118.216C90.6525 118.814 90.4884 119.527 90.4884 120.355V121.049C90.4884 121.897 90.6718 122.649 91.0385 123.304C91.4244 123.94 91.9552 124.432 92.6307 124.779C93.3254 125.106 94.136 125.27 95.0624 125.27C95.8923 125.27 96.616 125.145 97.2336 124.894C97.8705 124.644 98.4495 124.268 98.9706 123.767L101.373 126.369C100.659 127.178 99.7618 127.805 98.6811 128.248C97.6003 128.672 96.3555 128.884 94.9466 128.884Z" fill="#1E1E1E"/>
<path d="M115.334 129C113.77 129 112.313 128.75 110.962 128.249C109.631 127.728 108.473 126.996 107.488 126.051C106.504 125.107 105.732 123.999 105.172 122.727C104.632 121.455 104.362 120.057 104.362 118.535C104.362 117.012 104.632 115.615 105.172 114.342C105.732 113.07 106.504 111.962 107.488 111.018C108.492 110.073 109.66 109.351 110.991 108.849C112.323 108.329 113.78 108.069 115.363 108.069C117.119 108.069 118.701 108.377 120.11 108.994C121.538 109.591 122.735 110.478 123.7 111.654L120.689 114.429C119.994 113.639 119.222 113.051 118.373 112.666C117.524 112.261 116.598 112.059 115.594 112.059C114.648 112.059 113.78 112.213 112.989 112.521C112.197 112.829 111.512 113.273 110.933 113.851C110.354 114.429 109.901 115.113 109.573 115.904C109.264 116.694 109.11 117.571 109.11 118.535C109.11 119.498 109.264 120.375 109.573 121.165C109.901 121.956 110.354 122.64 110.933 123.218C111.512 123.796 112.197 124.24 112.989 124.548C113.78 124.856 114.648 125.011 115.594 125.011C116.598 125.011 117.524 124.818 118.373 124.432C119.222 124.028 119.994 123.42 120.689 122.611L123.7 125.386C122.735 126.562 121.538 127.458 120.11 128.075C118.701 128.692 117.109 129 115.334 129Z" fill="#489000"/>
<path d="M136.017 128.653V125.618L135.728 124.953V119.518C135.728 118.554 135.428 117.802 134.83 117.262C134.251 116.723 133.354 116.453 132.138 116.453C131.308 116.453 130.488 116.588 129.677 116.858C128.886 117.108 128.21 117.455 127.651 117.899L126.029 114.747C126.879 114.15 127.902 113.687 129.098 113.36C130.295 113.032 131.511 112.868 132.746 112.868C135.12 112.868 136.963 113.427 138.275 114.545C139.587 115.663 140.244 117.407 140.244 119.778V128.653H136.017ZM131.269 128.885C130.053 128.885 129.011 128.682 128.143 128.277C127.274 127.853 126.608 127.285 126.145 126.572C125.682 125.859 125.451 125.059 125.451 124.172C125.451 123.247 125.672 122.438 126.116 121.744C126.58 121.05 127.303 120.51 128.288 120.125C129.272 119.72 130.555 119.518 132.138 119.518H136.278V122.148H132.63C131.568 122.148 130.835 122.322 130.43 122.669C130.044 123.016 129.851 123.449 129.851 123.97C129.851 124.548 130.073 125.011 130.517 125.358C130.98 125.685 131.607 125.849 132.398 125.849C133.151 125.849 133.827 125.676 134.425 125.329C135.023 124.962 135.457 124.432 135.728 123.739L136.422 125.82C136.094 126.822 135.496 127.584 134.627 128.104C133.759 128.624 132.64 128.885 131.269 128.885Z" fill="#489000"/>
<path d="M144.331 128.653V113.099H148.644V117.494L148.036 116.222C148.5 115.123 149.243 114.294 150.266 113.735C151.288 113.157 152.533 112.868 154 112.868V117.031C153.807 117.012 153.633 117.002 153.479 117.002C153.325 116.983 153.16 116.973 152.987 116.973C151.752 116.973 150.748 117.33 149.976 118.043C149.223 118.737 148.847 119.826 148.847 121.31V128.653H144.331Z" fill="#489000"/>
</svg>
