<svg width="18" height="32" viewBox="0 0 18 32" fill="none" xmlns="http://www.w3.org/2000/svg">
<path d="M14.4332 31.3668L0.456221 17.1821C0.290322 17.0132 0.173087 16.8303 0.104516 16.6332C0.0348383 16.4362 0 16.2252 0 16C0 15.7748 0.0348383 15.5638 0.104516 15.3668C0.173087 15.1697 0.290322 14.9868 0.456221 14.8179L14.4332 0.591029C14.8203 0.19701 15.3041 0 15.8848 0C16.4654 0 16.9631 0.211082 17.3779 0.633245C17.7926 1.05541 18 1.54793 18 2.11082C18 2.6737 17.7926 3.16623 17.3779 3.58839L5.18433 16L17.3779 28.4116C17.765 28.8056 17.9585 29.2908 17.9585 29.8672C17.9585 30.4447 17.7512 30.9446 17.3364 31.3668C16.9217 31.7889 16.4378 32 15.8848 32C15.3318 32 14.8479 31.7889 14.4332 31.3668Z" fill="#1E1E1E"/>
</svg>
