<svg width="200" height="200" viewBox="0 0 200 200" fill="none" xmlns="http://www.w3.org/2000/svg">
<circle cx="100" cy="100" r="100" fill="#1E1E1E"/>
<circle cx="99.5" cy="100.5" r="85.5" fill="#489000"/>
<circle cx="99" cy="100" r="71" fill="#FEFEFE"/>
<path d="M86.6667 131.5L141.63 75.85L134.241 68.5L86.537 116.669L64.6296 94.3563L57.2407 101.838L86.6667 131.5ZM86.6667 142C85.3704 142 84.0741 141.738 82.7778 141.213C81.4815 140.688 80.3148 139.9 79.2778 138.85L49.9815 109.188C48.9444 108.138 48.1883 106.978 47.713 105.709C47.2377 104.441 47 103.15 47 101.838C47 100.525 47.2377 99.2125 47.713 97.9C48.1883 96.5875 48.9444 95.4062 49.9815 94.3563L57.2407 87.0063C58.2778 85.9563 59.4228 85.1688 60.6759 84.6438C61.929 84.1188 63.2469 83.8563 64.6296 83.8563C66.0123 83.8563 67.3302 84.1188 68.5833 84.6438C69.8364 85.1688 70.9815 85.9563 72.0185 87.0063L86.6667 101.838L126.852 61.0187C127.802 59.9687 128.926 59.2031 130.222 58.7219C131.519 58.2406 132.815 58 134.111 58C135.407 58 136.704 58.2406 138 58.7219C139.296 59.2031 140.463 59.925 141.5 60.8875L148.889 68.2375C149.926 69.2875 150.704 70.4469 151.222 71.7156C151.741 72.9844 152 74.3188 152 75.7188C152 77.1187 151.762 78.4531 151.287 79.7219C150.812 80.9906 150.056 82.15 149.019 83.2L94.0556 138.85C93.0185 139.9 91.8519 140.688 90.5556 141.213C89.2593 141.738 87.963 142 86.6667 142Z" fill="#1E1E1E"/>
</svg>
