<svg width="200" height="200" viewBox="0 0 200 200" fill="none" xmlns="http://www.w3.org/2000/svg">
<circle cx="100" cy="100" r="100" fill="#1E1E1E"/>
<circle cx="99.5" cy="100.5" r="85.5" fill="#9A1010"/>
<circle cx="99" cy="100" r="71" fill="#FEFEFE"/>
<path d="M100 108.304L70.9354 137.369C69.8479 138.456 68.4639 139 66.7833 139C65.1027 139 63.7186 138.456 62.6312 137.369C61.5437 136.281 61 134.897 61 133.217C61 131.536 61.5437 130.152 62.6312 129.065L91.6958 100L62.6312 70.9354C61.5437 69.8479 61 68.4639 61 66.7833C61 65.1027 61.5437 63.7186 62.6312 62.6312C63.7186 61.5437 65.1027 61 66.7833 61C68.4639 61 69.8479 61.5437 70.9354 62.6312L100 91.6958L129.065 62.6312C130.152 61.5437 131.536 61 133.217 61C134.897 61 136.281 61.5437 137.369 62.6312C138.456 63.7186 139 65.1027 139 66.7833C139 68.4639 138.456 69.8479 137.369 70.9354L108.304 100L137.369 129.065C138.456 130.152 139 131.536 139 133.217C139 134.897 138.456 136.281 137.369 137.369C136.281 138.456 134.897 139 133.217 139C131.536 139 130.152 138.456 129.065 137.369L100 108.304Z" fill="#1E1E1E"/>
</svg>
